<?xml version="1.0" encoding="UTF-8"?>
<svg version="1.1" xmlns="http://www.w3.org/2000/svg" width="1024" height="1024">
<path d="M0 0 C337.92 0 675.84 0 1024 0 C1024 337.92 1024 675.84 1024 1024 C686.08 1024 348.16 1024 0 1024 C0 686.08 0 348.16 0 0 Z " fill="#FBFBFB" transform="translate(0,0)"/>
<path d="M0 0 C0.70769531 0.39445312 1.41539062 0.78890625 2.14453125 1.1953125 C9.30585681 5.12625751 16.14419172 7.50451909 24.14453125 9.1953125 C23.81453125 9.8553125 23.48453125 10.5153125 23.14453125 11.1953125 C21.16453125 11.1953125 19.18453125 11.1953125 17.14453125 11.1953125 C17.63953125 13.6703125 17.63953125 13.6703125 18.14453125 16.1953125 C19.3046875 16.30746094 19.3046875 16.30746094 20.48828125 16.421875 C27.6710109 17.32860572 33.09848954 18.76217718 38.14453125 24.1953125 C38.63953125 25.6803125 38.63953125 25.6803125 39.14453125 27.1953125 C39.76328125 27.4840625 40.38203125 27.7728125 41.01953125 28.0703125 C43.14453125 29.1953125 43.14453125 29.1953125 44.39453125 31.5078125 C47.62358144 36.466711 51.82788559 38.68109138 57.55859375 39.953125 C60.75067518 40.44688923 63.93151974 40.86715431 67.14453125 41.1953125 C67.62486305 42.77829276 68.10374737 44.36171228 68.58203125 45.9453125 C68.84886719 46.82703125 69.11570312 47.70875 69.390625 48.6171875 C70.02921619 50.80097085 70.61228958 52.98366748 71.14453125 55.1953125 C71.80453125 55.1953125 72.46453125 55.1953125 73.14453125 55.1953125 C73.47453125 57.5053125 73.80453125 59.8153125 74.14453125 62.1953125 C69.28876246 60.38585149 66.44033519 56.20864035 63.2109375 52.36328125 C61.93352623 50.90186614 60.54351616 49.54080681 59.14453125 48.1953125 C57.82453125 48.1953125 56.50453125 48.1953125 55.14453125 48.1953125 C55.63776884 50.74890963 56.39871456 52.71283254 57.5546875 55.06640625 C62.52886708 65.80263782 62.6297285 75.50302965 62.18579102 87.25366211 C62.12476196 89.07136108 62.12476196 89.07136108 62.0625 90.92578125 C61.98165161 92.55616333 61.98165161 92.55616333 61.89916992 94.21948242 C62.24009838 98.35438492 63.75735726 101.00630622 66.89453125 103.6953125 C68.14453125 105.1953125 68.14453125 105.1953125 68.08203125 107.5703125 C67.14453125 110.1953125 67.14453125 110.1953125 65.20703125 112.5703125 C62.68125161 115.78494113 62.07311019 118.248852 61.14453125 122.1953125 C60.48453125 122.1953125 59.82453125 122.1953125 59.14453125 122.1953125 C59.02078125 122.9996875 58.89703125 123.8040625 58.76953125 124.6328125 C58.56328125 125.4784375 58.35703125 126.3240625 58.14453125 127.1953125 C57.48453125 127.5253125 56.82453125 127.8553125 56.14453125 128.1953125 C56.14453125 123.2453125 56.14453125 118.2953125 56.14453125 113.1953125 C54.82453125 112.8653125 53.50453125 112.5353125 52.14453125 112.1953125 C51.93828125 112.8759375 51.73203125 113.5565625 51.51953125 114.2578125 C48.22981233 121.28584837 42.4841468 125.65889778 36.48046875 130.35546875 C30.22555248 135.2819998 27.34755106 139.72695321 25.26953125 147.4453125 C23.83396065 150.95448508 22.45782834 151.45024732 19.14453125 153.1953125 C17.28887906 153.97239934 15.41270048 154.70221034 13.51953125 155.3828125 C12.10800781 155.89908203 12.10800781 155.89908203 10.66796875 156.42578125 C8.14453125 157.1953125 8.14453125 157.1953125 5.14453125 157.1953125 C7.01276771 152.24508087 11.24991382 149.09198768 15.06445312 145.6171875 C16.90099864 143.91952698 16.90099864 143.91952698 19.14453125 141.1953125 C18.87179808 139.04347635 18.87179808 139.04347635 18.14453125 137.1953125 C15.50453125 137.1953125 12.86453125 137.1953125 10.14453125 137.1953125 C10.14453125 137.8553125 10.14453125 138.5153125 10.14453125 139.1953125 C8.67693359 139.34226562 8.67693359 139.34226562 7.1796875 139.4921875 C-4.27922862 140.79920251 -13.11528716 143.33543697 -21.85546875 151.1953125 C-22.51546875 152.1853125 -23.17546875 153.1753125 -23.85546875 154.1953125 C-25.73046875 154.0078125 -25.73046875 154.0078125 -27.85546875 153.1953125 C-29.87982812 149.59645139 -30.44677475 145.54454371 -31.28125 141.5390625 C-31.84900415 139.22169863 -32.60011874 137.09815336 -33.48046875 134.8828125 C-34.85546875 131.1953125 -34.85546875 131.1953125 -34.85546875 127.1953125 C-35.51546875 127.1953125 -36.17546875 127.1953125 -36.85546875 127.1953125 C-37.04109375 126.4734375 -37.22671875 125.7515625 -37.41796875 125.0078125 C-39.17756206 121.56512993 -41.17831739 120.32365019 -44.39453125 118.30859375 C-44.87664062 117.94121094 -45.35875 117.57382812 -45.85546875 117.1953125 C-45.85546875 116.5353125 -45.85546875 115.8753125 -45.85546875 115.1953125 C-46.51933594 115.08316406 -47.18320312 114.97101563 -47.8671875 114.85546875 C-51.5597111 114.03973478 -55.09479023 112.85350602 -58.66796875 111.6328125 C-59.70727539 111.28186523 -59.70727539 111.28186523 -60.76757812 110.92382812 C-62.46446989 110.35039574 -64.16009953 109.77323081 -65.85546875 109.1953125 C-65.85546875 108.5353125 -65.85546875 107.8753125 -65.85546875 107.1953125 C-66.96921875 106.8240625 -66.96921875 106.8240625 -68.10546875 106.4453125 C-71.08569962 105.09066211 -72.75466127 103.6851584 -74.85546875 101.1953125 C-74.85546875 100.5353125 -74.85546875 99.8753125 -74.85546875 99.1953125 C-75.51546875 99.1953125 -76.17546875 99.1953125 -76.85546875 99.1953125 C-80.94324767 91.19007878 -80.12413359 82.95179605 -79.85546875 74.1953125 C-79.19546875 74.1953125 -78.53546875 74.1953125 -77.85546875 74.1953125 C-75.40849209 78.55731437 -74.35277527 82.22224734 -73.85546875 87.1953125 C-72.53546875 87.5253125 -71.21546875 87.8553125 -69.85546875 88.1953125 C-69.52546875 85.8853125 -69.19546875 83.5753125 -68.85546875 81.1953125 C-68.19546875 81.1953125 -67.53546875 81.1953125 -66.85546875 81.1953125 C-63.1539674 71.8313954 -61.86542912 61.00535034 -65.35546875 51.3828125 C-67.08901925 46.52722791 -67.1598752 41.92177793 -67.16796875 36.8203125 C-67.173125 36.03422607 -67.17828125 35.24813965 -67.18359375 34.43823242 C-67.13693873 30.57128116 -67.0511586 27.46697786 -64.85546875 24.1953125 C-64.19546875 24.1953125 -63.53546875 24.1953125 -62.85546875 24.1953125 C-62.85546875 23.5353125 -62.85546875 22.8753125 -62.85546875 22.1953125 C-57.44370404 18.1953125 -57.44370404 18.1953125 -54.85546875 18.1953125 C-55.82011405 20.86663794 -56.67956158 22.97881137 -58.48046875 25.1953125 C-60.19065178 27.68285145 -60.10180435 29.23928532 -59.85546875 32.1953125 C-49.80565378 30.41228081 -41.02117733 26.66780983 -33.85546875 19.1953125 C-33.52546875 18.5353125 -33.19546875 17.8753125 -32.85546875 17.1953125 C-32.19546875 17.1953125 -31.53546875 17.1953125 -30.85546875 17.1953125 C-30.57703125 16.1434375 -30.57703125 16.1434375 -30.29296875 15.0703125 C-27.79900814 10.08239128 -23.05947296 6.22544601 -17.85546875 4.1953125 C-15.05859375 4 -15.05859375 4 -12.10546875 4.0703125 C-10.62820313 4.09738281 -10.62820313 4.09738281 -9.12109375 4.125 C-7.99960937 4.15980469 -7.99960937 4.15980469 -6.85546875 4.1953125 C-6.52546875 3.2053125 -6.19546875 2.2153125 -5.85546875 1.1953125 C-2.62981197 -1.14050793 -2.62981197 -1.14050793 0 0 Z " fill="#FCFBFB" transform="translate(527.85546875,359.8046875)"/>
<path d="M0 0 C1.32 0 2.64 0 4 0 C4 0.66 4 1.32 4 2 C4.99 2.33 5.98 2.66 7 3 C8.140625 4.890625 8.140625 4.890625 9.25 7.25 C11.7608884 11.91625278 14.13558091 14.78408495 19 17 C22.02191773 17.86751652 25.05020665 18.57349645 28.12109375 19.24609375 C31.94198091 20.24667885 34.68495853 21.88401608 38 24 C38.99 24.33 39.98 24.66 41 25 C41 25.66 41 26.32 41 27 C41.86818359 27.39445312 41.86818359 27.39445312 42.75390625 27.796875 C49.86850674 31.60782622 55.5242616 38.20386778 59.875 44.875 C62.19801323 48.29119592 64.81276007 51.23400041 67.609375 54.265625 C69 56 69 56 69 58 C69.66 58 70.32 58 71 58 C71.17015625 57.443125 71.3403125 56.88625 71.515625 56.3125 C73.23315937 50.90409391 75.35342255 46.01937104 78 41 C79.65 41 81.3 41 83 41 C83.03867187 42.23363281 83.03867187 42.23363281 83.078125 43.4921875 C83.46793772 51.1644105 84.83061473 57.05082934 88 64 C92.563972 74.431936 91.93779082 85.15668406 88.94921875 95.98828125 C88.63597656 96.65214844 88.32273437 97.31601562 88 98 C87.01 98.33 86.02 98.66 85 99 C85.02094727 99.57331055 85.04189453 100.14662109 85.06347656 100.73730469 C85.73089514 121.79900736 85.73089514 121.79900736 81 132 C81.41765625 131.54496094 81.8353125 131.08992187 82.265625 130.62109375 C84.03993543 128.96267297 85.55938036 128.08332875 87.75 127.0625 C90.51396781 125.75644928 93.05703108 124.34241331 95.625 122.6875 C99.4161711 120.79191445 101.00244353 120.82998347 105 122 C105 122.99 105 123.98 105 125 C104.01 125 103.02 125 102 125 C101.62875 126.051875 101.62875 126.051875 101.25 127.125 C99.82819762 130.39514548 98.12753712 133.141122 96 136 C95.34 136 94.68 136 94 136 C93.72929688 136.67675781 93.45859375 137.35351562 93.1796875 138.05078125 C92.33072917 140.17317708 91.48177083 142.29557292 90.6328125 144.41796875 C90.38909912 145.02777588 90.14538574 145.63758301 89.89428711 146.26586914 C89.37051022 147.57423089 88.84522249 148.88198859 88.31860352 150.18920898 C87.14265473 153.11289163 85.98675382 156.03585363 84.89453125 158.9921875 C82.24265766 166.11436228 79.18786555 171.59522158 72 175 C71.01 175 70.02 175 69 175 C69 175.66 69 176.32 69 177 C67.35 177 65.7 177 64 177 C64 177.66 64 178.32 64 179 C59.23692563 179.95261487 54.8333472 180.08333357 50 180 C50 180.66 50 181.32 50 182 C47.69 182 45.38 182 43 182 C43 182.66 43 183.32 43 184 C39.7 184.66 36.4 185.32 33 186 C33.68448536 189.10602049 33.68448536 189.10602049 36.07421875 190.31640625 C40.6506931 192.49861151 45.11320257 194.58540075 50 196 C49.67 197.65 49.34 199.3 49 201 C47.68 201 46.36 201 45 201 C45 201.66 45 202.32 45 203 C32.18578745 207.27140418 13.63531237 204.49234821 1.5703125 198.8671875 C1.05210937 198.58101562 0.53390625 198.29484375 0 198 C0 197.34 0 196.68 0 196 C-3.3 195.01 -6.6 194.02 -10 193 C-9.67 193.66 -9.34 194.32 -9 195 C-8.95977609 197.3329866 -8.95679753 199.66706666 -9 202 C-12.56290354 201.69199513 -16.12523558 201.37780401 -19.6875 201.0625 C-21.19860352 200.93198242 -21.19860352 200.93198242 -22.74023438 200.79882812 C-23.71669922 200.71181641 -24.69316406 200.62480469 -25.69921875 200.53515625 C-27.04246216 200.41732788 -27.04246216 200.41732788 -28.4128418 200.29711914 C-30.98298823 200.0019537 -33.47186549 199.54387764 -36 199 C-36 198.34 -36 197.68 -36 197 C-36.680625 196.95875 -37.36125 196.9175 -38.0625 196.875 C-42.26826864 195.62221785 -45.03682611 193.19228527 -48 190 C-49.4375 187.125 -49.4375 187.125 -50 185 C-50.66 185 -51.32 185 -52 185 C-55.13337885 179.34352249 -56.56372416 173.59082605 -58.10546875 167.36914062 C-58.30785156 166.59376953 -58.51023437 165.81839844 -58.71875 165.01953125 C-58.98075195 163.96922729 -58.98075195 163.96922729 -59.24804688 162.89770508 C-60.11851532 160.70090274 -61.31997482 159.62543014 -63 158 C-63 157.34 -63 156.68 -63 156 C-63.66 156 -64.32 156 -65 156 C-65 158.64 -65 161.28 -65 164 C-67.1875 163.875 -67.1875 163.875 -70 163 C-71.26417402 161.54133766 -72.52296017 160.07453234 -73.6875 158.53515625 C-75.0936875 156.73965118 -75.0936875 156.73965118 -77.9375 155.125 C-81.86926763 152.3968347 -84.51241462 149.07540583 -87 145 C-87 144.34 -87 143.68 -87 143 C-87.66 143 -88.32 143 -89 143 C-91.10209857 139.84685215 -91.2434761 139.13896919 -91.1953125 135.55078125 C-91.18886719 134.70322266 -91.18242187 133.85566406 -91.17578125 132.98242188 C-91.15902344 132.10134766 -91.14226562 131.22027344 -91.125 130.3125 C-91.11597656 129.41982422 -91.10695313 128.52714844 -91.09765625 127.60742188 C-91.07409748 125.40467686 -91.04120329 123.20247412 -91 121 C-90.34 121 -89.68 121 -89 121 C-89 119.35 -89 117.7 -89 116 C-88.34 116 -87.68 116 -87 116 C-87.0825 115.071875 -87.165 114.14375 -87.25 113.1875 C-87.27625605 106.76789539 -84.51158394 100.26737592 -81 95 C-80.85778935 92.39754502 -80.81197068 89.90882316 -80.875 87.3125 C-80.88402344 86.61060547 -80.89304687 85.90871094 -80.90234375 85.18554688 C-80.92586296 83.45688475 -80.96173287 81.72839855 -81 80 C-81.66 80 -82.32 80 -83 80 C-83.49655172 55.55862069 -83.49655172 55.55862069 -76.5 47.6875 C-75.8915625 46.99011719 -75.283125 46.29273438 -74.65625 45.57421875 C-73 44 -73 44 -71 44 C-70.89171875 43.27039063 -70.7834375 42.54078125 -70.671875 41.7890625 C-69.95496688 38.8130602 -68.94141033 36.91211549 -67.25 34.375 C-66.51523437 33.24191406 -66.51523437 33.24191406 -65.765625 32.0859375 C-63.56065446 29.48095018 -62.19239917 28.30712407 -59 27 C-54.39422594 26.70615698 -49.79344743 27.02946972 -45.19140625 27.29296875 C-39.2564071 27.47868981 -36.10475617 27.01279288 -31.53417969 23.17089844 C-25.69380047 18.71347343 -15.06666222 21.05374802 -8.1875 21.9375 C-5.78748967 22.27011824 -3.39438374 22.62808674 -1 23 C-1.01160156 21.84242188 -1.02320313 20.68484375 -1.03515625 19.4921875 C-1.04454077 17.95312662 -1.05364026 16.41406399 -1.0625 14.875 C-1.07087891 14.11445313 -1.07925781 13.35390625 -1.08789062 12.5703125 C-1.10646509 8.2610356 -0.86117265 4.24483526 0 0 Z M-0.6875 30.3125 C-1.8321875 31.1478125 -1.8321875 31.1478125 -3 32 C-3 32.66 -3 33.32 -3 34 C-3.68964844 33.93039062 -4.37929688 33.86078125 -5.08984375 33.7890625 C-12.79379699 33.34521334 -17.21816556 34.90190947 -23 40 C-26.11444619 43.04074405 -26.11444619 43.04074405 -27 47 C-27.66 47 -28.32 47 -29 47 C-30.051875 48.3303125 -30.051875 48.3303125 -31.125 49.6875 C-36.63681984 56.49716113 -44.76091225 59.61745282 -53 62 C-53.99 62 -54.98 62 -56 62 C-56.41026056 59.29228028 -56.32935767 57.53852868 -54.88671875 55.1796875 C-53.9766192 53.95425768 -53.04600643 52.74374694 -52.09375 51.55078125 C-50.80788004 50.04388231 -50.80788004 50.04388231 -51 48 C-53.9719385 49.12451727 -56.33440687 50.22293791 -59 52 C-59 52.66 -59 53.32 -59 54 C-59.66 54 -60.32 54 -61 54 C-63.61960788 57.9033201 -63.34216677 62.10220872 -63.3125 66.625 C-63.31056641 67.84376831 -63.31056641 67.84376831 -63.30859375 69.0871582 C-63.22512254 74.30150039 -62.46111456 78.53756986 -60.6796875 83.44921875 C-58.2565743 92.54285623 -59.58519837 102.36136492 -63 111 C-63.66 111 -64.32 111 -65 111 C-65.33 113.31 -65.66 115.62 -66 118 C-67.32 117.67 -68.64 117.34 -70 117 C-70.103125 115.96875 -70.20625 114.9375 -70.3125 113.875 C-70.99127797 110.04916055 -72.11158795 107.36629975 -74 104 C-74.66 104 -75.32 104 -76 104 C-76.67822188 116.87562491 -76.67822188 116.87562491 -73 129 C-72.34 129 -71.68 129 -71 129 C-70.773125 129.5775 -70.54625 130.155 -70.3125 130.75 C-68.65151778 133.59739809 -66.68475439 135.12067193 -64 137 C-63.34 137 -62.68 137 -62 137 C-62 137.66 -62 138.32 -62 139 C-59.60539412 139.81627446 -57.20943474 140.62811645 -54.8125 141.4375 C-54.13896484 141.66759766 -53.46542969 141.89769531 -52.77148438 142.13476562 C-49.20485509 143.33524085 -45.7128839 144.37277495 -42 145 C-42 145.66 -42 146.32 -42 147 C-40.49905763 148.17891777 -40.49905763 148.17891777 -38.625 149.3125 C-35.41985669 151.48811243 -33.99216912 153.14156455 -33 157 C-32.34 157 -31.68 157 -31 157 C-30.8453125 158.7634375 -30.8453125 158.7634375 -30.6875 160.5625 C-30.17140213 164.77238407 -28.68049683 168.10124735 -27 172 C-26.42464692 174.61273352 -25.95203645 177.22209713 -25.52734375 179.86328125 C-25.14641667 182.19830155 -25.14641667 182.19830155 -23 184 C-22.01 184 -21.02 184 -20 184 C-18.85576442 182.55287853 -17.71190509 181.10545736 -16.5703125 179.65625 C-8.86626711 171.53059019 3.40254681 169.57444139 14 169 C14 168.34 14 167.68 14 167 C16.64 167 19.28 167 22 167 C22.68530273 168.78857422 22.68530273 168.78857422 23 171 C21.82836914 172.70751953 21.82836914 172.70751953 20.03515625 174.3828125 C19.40029297 174.99253906 18.76542969 175.60226562 18.11132812 176.23046875 C17.43521484 176.85566406 16.75910156 177.48085938 16.0625 178.125 C14.73674346 179.37321949 13.41490635 180.6256194 12.09765625 181.8828125 C11.20832397 182.70869873 11.20832397 182.70869873 10.30102539 183.55126953 C8.77727974 184.92347662 8.77727974 184.92347662 9 187 C15.86124999 185.78268145 22.2338897 184.06956388 28 180 C30.06851748 176.7014061 30.06851748 176.7014061 31 173 C33.99815645 164.60516194 39.23720047 160.32752303 46.125 155 C50.34807163 151.69106888 53.24124532 148.59792447 56 144 C56 143.34 56 142.68 56 142 C57.32 142.33 58.64 142.66 60 143 C60 147.95 60 152.9 60 158 C60.99 157.34 61.98 156.68 63 156 C63 154.68 63 153.36 63 152 C63.66 152 64.32 152 65 152 C65.4125 150.783125 65.825 149.56625 66.25 148.3125 C67.33083059 145.36100109 68.18181293 143.78283456 70.25 141.3125 C72.25772031 139.14277885 72.25772031 139.14277885 72 136.4375 C70.82078772 133.56317006 69.2491827 132.10860878 67 130 C65.89114816 126.67344448 65.97500674 124.4200988 66.11328125 120.92578125 C66.5198028 106.46222279 66.42685901 95.08515616 60 82 C59.30859375 79.59765625 59.30859375 79.59765625 59 78 C62.76874142 78.16022376 64.54849628 79.28058281 67.04296875 81.94140625 C68.10248937 83.13849259 69.15040561 84.34593316 70.1875 85.5625 C72.08675947 87.75571983 74.00963005 89.88615067 76 92 C76.66 92 77.32 92 78 92 C77.67 89.69 77.34 87.38 77 85 C76.34 85 75.68 85 75 85 C74.86722656 84.44828125 74.73445312 83.8965625 74.59765625 83.328125 C73.94339359 80.77949398 73.19964936 78.26840657 72.4375 75.75 C72.03337891 74.41195312 72.03337891 74.41195312 71.62109375 73.046875 C71.41613281 72.37140625 71.21117187 71.6959375 71 71 C70.16597656 70.92523438 69.33195313 70.85046875 68.47265625 70.7734375 C60.13242144 69.79897708 53.05746459 68.12399813 47.6328125 61.2734375 C46.72168309 59.87016519 45.85577379 58.43769997 45 57 C44.34 57 43.68 57 43 57 C42.7215625 56.1646875 42.7215625 56.1646875 42.4375 55.3125 C39.59371256 50.7377115 35.99221136 48.48499527 30.87109375 47.23828125 C27.91759686 46.74661294 24.97586842 46.32739439 22 46 C21.505 43.525 21.505 43.525 21 41 C22.98 41 24.96 41 27 41 C27.33 40.34 27.66 39.68 28 39 C27.09378906 38.76925781 26.18757812 38.53851563 25.25390625 38.30078125 C18.64738191 36.5320504 12.63654505 34.67419512 6.76953125 31.05078125 C3.69199988 29.2232847 2.61663895 28.69885075 -0.6875 30.3125 Z " fill="#B72D3E" transform="translate(524,330)"/>
<path d="M0 0 C10.89 0 21.78 0 33 0 C33.33 25.08 33.66 50.16 34 76 C48.50281672 53.93800889 48.50281672 53.93800889 62.9921875 31.8671875 C63.46564102 31.14545349 63.93909454 30.42371948 64.42689514 29.68011475 C66.67528008 26.25254271 68.92326566 22.82470974 71.1706543 19.39648438 C71.99006077 18.14712831 72.80947755 16.89777899 73.62890625 15.6484375 C74.33088135 14.57770996 75.03285645 13.50698242 75.75610352 12.40380859 C78.48853901 8.25892603 81.24619116 4.13071326 84 0 C94.56 0 105.12 0 116 0 C116 38.28 116 76.56 116 116 C107.75 116 99.5 116 91 116 C90.67 88.61 90.34 61.22 90 33 C80.62849417 47.48238399 80.62849417 47.48238399 71.3125 62 C70.64460449 63.04397949 69.97670898 64.08795898 69.28857422 65.16357422 C65.77833111 70.65084137 62.27201705 76.14059084 58.76953125 81.6328125 C46.82525595 100.35053612 46.82525595 100.35053612 41.0625 109 C40.45172607 109.91676514 40.45172607 109.91676514 39.82861328 110.85205078 C37.13645481 114.86354519 37.13645481 114.86354519 36 116 C26.76 116 17.52 116 8 116 C7.67 87.95 7.34 59.9 7 31 C3.37 36.94 -0.26 42.88 -4 49 C-6.51638602 52.85615147 -9.04335652 56.6892645 -11.625 60.5 C-12.99709699 62.54229509 -14.36815296 64.58528989 -15.73828125 66.62890625 C-16.43518066 67.66805176 -17.13208008 68.70719727 -17.85009766 69.77783203 C-20.79953305 74.19830084 -23.71689951 78.63913647 -26.61962891 83.09033203 C-28.07034954 85.31306839 -29.53976862 87.51915731 -31.02099609 89.72216797 C-34.21772332 94.50959717 -37.18356605 99.13738596 -39.49609375 104.41796875 C-43.71210004 113.54139906 -43.71210004 113.54139906 -48 116 C-57.49557827 117.99262098 -67.43032986 117.0378335 -77 116 C-70.66063114 105.86611893 -64.01115505 95.94068708 -57.375 86 C-56.77195038 85.09570251 -56.16890076 84.19140503 -55.5475769 83.25970459 C-48.44879777 72.61531264 -41.32714106 61.98668932 -34.16796875 51.3828125 C-33.52809021 50.43500916 -32.88821167 49.48720581 -32.22894287 48.51068115 C-29.16744469 43.97756153 -26.10309546 39.44640071 -23.03466797 34.91796875 C-22.47044128 34.08038025 -21.9062146 33.24279175 -21.32489014 32.37982178 C-20.20027101 30.72403695 -19.06138066 29.07785006 -17.90802002 27.44195557 C-14.39059937 22.38935676 -11.6775827 17.43509374 -9.3913269 11.71112061 C-7.71484375 8.7421875 -7.71484375 8.7421875 0 0 Z " fill="#B01A2B" transform="translate(171,536)"/>
<path d="M0 0 C4.3211437 2.86737602 6.66146682 5.32293364 9 10 C9.33 6.37 9.66 2.74 10 -1 C17.59 -1 25.18 -1 33 -1 C33.09072206 10.88389227 33.16395786 22.76755084 33.20724869 34.65171242 C33.22803634 40.17126051 33.25619125 45.69055738 33.30175781 51.20996094 C33.34553212 56.54626272 33.36920328 61.88232435 33.37950897 67.21879196 C33.38684404 69.2447525 33.40116608 71.27070136 33.42292023 73.29655838 C33.72796952 102.9083705 33.72796952 102.9083705 23 114 C22.49855469 114.54011719 21.99710938 115.08023438 21.48046875 115.63671875 C11.09289821 125.67045477 -2.99321534 126.41401446 -16.61328125 126.2109375 C-26.59869608 125.86799978 -35.80557045 122.00572179 -43.04296875 115.03125 C-49.60523076 107.30764951 -52 99.01739941 -52 89 C-44.74 89 -37.48 89 -30 89 C-29.01 91.97 -28.02 94.94 -27 98 C-23.34509406 101.75108768 -19.38698114 103.74648614 -14.16796875 104.30078125 C-7.71734448 104.32614412 -2.7712584 103.98868739 3 101 C7.00038861 96.99961139 7.94063066 94.09929996 8.09765625 88.546875 C8.08605469 87.29390625 8.07445312 86.0409375 8.0625 84.75 C8.05347656 83.48671875 8.04445313 82.2234375 8.03515625 80.921875 C8.02355469 79.95765625 8.01195312 78.9934375 8 78 C6.8553125 79.1446875 6.8553125 79.1446875 5.6875 80.3125 C-1.39693319 86.12536826 -10.81899023 86.56930407 -19.63671875 86.34765625 C-29.55925239 85.32198204 -37.94340636 79.97444534 -44.25 72.375 C-52.33660193 60.89511006 -53.11665846 45.57941887 -52 32 C-49.68053756 18.75918298 -43.94897433 8.87401888 -33 1 C-23.09884533 -4.85818318 -10.36257269 -4.89040711 0 0 Z " fill="#B11B2D" transform="translate(898,567)"/>
<path d="M0 0 C4.3211437 2.86737602 6.66146682 5.32293364 9 10 C9.33 6.37 9.66 2.74 10 -1 C17.59 -1 25.18 -1 33 -1 C33.09072206 10.88389227 33.16395786 22.76755084 33.20724869 34.65171242 C33.22803634 40.17126051 33.25619125 45.69055738 33.30175781 51.20996094 C33.34553212 56.54626272 33.36920328 61.88232435 33.37950897 67.21879196 C33.38684404 69.2447525 33.40116608 71.27070136 33.42292023 73.29655838 C33.72796952 102.9083705 33.72796952 102.9083705 23 114 C22.49855469 114.54011719 21.99710938 115.08023438 21.48046875 115.63671875 C11.09289821 125.67045477 -2.99321534 126.41401446 -16.61328125 126.2109375 C-26.59869608 125.86799978 -35.80557045 122.00572179 -43.04296875 115.03125 C-49.60523076 107.30764951 -52 99.01739941 -52 89 C-44.74 89 -37.48 89 -30 89 C-29.01 91.97 -28.02 94.94 -27 98 C-23.34509406 101.75108768 -19.38698114 103.74648614 -14.16796875 104.30078125 C-7.71734448 104.32614412 -2.7712584 103.98868739 3 101 C7.00038861 96.99961139 7.94063066 94.09929996 8.09765625 88.546875 C8.08605469 87.29390625 8.07445312 86.0409375 8.0625 84.75 C8.05347656 83.48671875 8.04445313 82.2234375 8.03515625 80.921875 C8.02355469 79.95765625 8.01195312 78.9934375 8 78 C6.8553125 79.1446875 6.8553125 79.1446875 5.6875 80.3125 C-1.39693319 86.12536826 -10.81899023 86.56930407 -19.63671875 86.34765625 C-29.55925239 85.32198204 -37.94340636 79.97444534 -44.25 72.375 C-52.33660193 60.89511006 -53.11665846 45.57941887 -52 32 C-49.68053756 18.75918298 -43.94897433 8.87401888 -33 1 C-23.09884533 -4.85818318 -10.36257269 -4.89040711 0 0 Z " fill="#B11B2D" transform="translate(684,567)"/>
<path d="M0 0 C1.30445068 0.00241699 1.30445068 0.00241699 2.63525391 0.00488281 C12.12432475 0.1840213 21.88512145 1.93073127 29.25 8.375 C37.5892725 17.33911712 37.68149372 28.50489625 37.54296875 40.1328125 C37.53736035 41.53099101 37.53309615 42.9291755 37.53010559 44.32736206 C37.51875445 47.97376323 37.48937382 51.6197951 37.45599365 55.26605225 C37.42508037 59.00023404 37.41155525 62.73447661 37.39648438 66.46875 C37.36449242 73.77101968 37.3118069 81.07291065 37.25 88.375 C30.65 88.375 24.05 88.375 17.25 88.375 C16.59 85.405 15.93 82.435 15.25 79.375 C14.63125 80.2825 14.0125 81.19 13.375 82.125 C9.90310539 86.34514776 5.30676817 87.70369526 0.25 89.375 C-0.74 89.705 -1.73 90.035 -2.75 90.375 C-13.3099535 90.96103797 -23.08929528 91.07539151 -32.5625 85.8125 C-39.45381369 78.13360761 -40.74245059 70.32530658 -40.2265625 60.31640625 C-39.34609191 53.03448144 -36.44535179 49.54912576 -30.875 45.0625 C-24.83165076 40.65009647 -18.20272661 38.81521057 -11 37.3125 C-10.21230225 37.14186035 -9.42460449 36.9712207 -8.61303711 36.79541016 C-3.37079089 35.67272396 1.88349736 34.68003483 7.18359375 33.8671875 C9.5399965 33.4321472 9.5399965 33.4321472 12.25 31.375 C12.91707548 27.96000409 12.91707548 27.96000409 12.25 24.375 C7.96464276 20.08964276 4.93112746 19.19114318 -1 19.0625 C-6.44881022 19.04814297 -6.44881022 19.04814297 -11.4375 20.9375 C-14.43126176 23.71680198 -14.43126176 23.71680198 -15.75 30.375 C-23.01 30.375 -30.27 30.375 -37.75 30.375 C-36.65461627 19.85931616 -34.96824038 14.20187235 -27.25 7.0625 C-18.76583659 1.3356897 -10.06468295 -0.0196078 0 0 Z " fill="#B01A2C" transform="translate(586.75,563.625)"/>
<path d="M0 0 C10.99075163 6.79058223 16.41414148 16.37140965 19.5078125 28.74609375 C19.5078125 34.68609375 19.5078125 40.62609375 19.5078125 46.74609375 C0.3678125 46.74609375 -18.7721875 46.74609375 -38.4921875 46.74609375 C-36.31632331 57.48266307 -36.31632331 57.48266307 -29.3671875 65.18359375 C-24.92329764 67.40553868 -20.34394094 67.4615218 -15.4921875 66.74609375 C-12.5667231 65.39516495 -12.5667231 65.39516495 -10.4921875 63.74609375 C-9.8321875 63.74609375 -9.1721875 63.74609375 -8.4921875 63.74609375 C-7.8321875 61.76609375 -7.1721875 59.78609375 -6.4921875 57.74609375 C1.4278125 57.74609375 9.3478125 57.74609375 17.5078125 57.74609375 C16.02329813 66.65317998 11.60008651 73.12165981 4.5078125 78.74609375 C-7.44499434 86.0217153 -20.36893238 87.62035495 -34.015625 85.09375 C-44.94029166 81.8219668 -52.66510076 75.07928876 -58.1171875 65.18359375 C-64.21987263 52.4524537 -64.53331924 35.17748813 -60.4921875 21.74609375 C-56.42140716 10.92747753 -50.09047468 3.51950143 -39.609375 -1.46484375 C-27.20188921 -6.08903587 -11.99640032 -6.03580643 0 0 Z " fill="#B01A2C" transform="translate(357.4921875,569.25390625)"/>
<path d="M0 0 C5.38088793 4.28025176 8.38444304 8.77023821 10.75 15.1875 C11.11076355 18.57286072 11.11076355 18.57286072 11.09057617 22.13256836 C11.09123329 23.11433548 11.09123329 23.11433548 11.09190369 24.11593628 C11.08983374 26.25338853 11.06659013 28.39003061 11.04296875 30.52734375 C11.03736636 32.01949129 11.0330993 33.51164439 11.03010559 35.00379944 C11.01870733 38.91162628 10.98928423 42.81911317 10.95599365 46.72680664 C10.92518381 50.7221212 10.91157704 54.71749124 10.89648438 58.71289062 C10.86440891 66.53793259 10.81168293 74.36262515 10.75 82.1875 C2.83 82.1875 -5.09 82.1875 -13.25 82.1875 C-13.279729 79.50040894 -13.279729 79.50040894 -13.31005859 76.7590332 C-13.37790575 70.83172513 -13.45468684 64.90458885 -13.53752708 58.97747517 C-13.58741384 55.38484348 -13.63374423 51.79224011 -13.671875 48.19946289 C-13.70882454 44.73042796 -13.7552101 41.26163441 -13.80806351 37.79280663 C-13.83553897 35.82926204 -13.85331155 33.86558943 -13.87094116 31.90193176 C-13.89081085 30.7010643 -13.91068054 29.50019684 -13.93115234 28.26293945 C-13.94447601 27.20814896 -13.95779968 26.15335846 -13.9715271 25.06660461 C-14.26332397 22.04974476 -14.8821568 19.88542114 -16.25 17.1875 C-21.34738748 13.39713495 -27.14869756 13.36128196 -33.25 14.1875 C-37.28482585 16.20491293 -39.89862994 18.35882513 -42.25 22.1875 C-42.7202131 25.01017351 -42.7202131 25.01017351 -42.68237305 28.14941406 C-42.70216721 29.35035706 -42.72196136 30.55130005 -42.74235535 31.78863525 C-42.74874527 33.08041687 -42.75513519 34.37219849 -42.76171875 35.703125 C-42.77857008 37.04263961 -42.79672094 38.38213846 -42.81611633 39.72161865 C-42.86357396 43.23965527 -42.89341028 46.75762795 -42.91955566 50.27587891 C-42.94938289 53.86894355 -42.9959057 57.46178797 -43.04101562 61.0546875 C-43.12700028 68.09884618 -43.19282299 75.14304001 -43.25 82.1875 C-51.17 82.1875 -59.09 82.1875 -67.25 82.1875 C-67.25 53.8075 -67.25 25.4275 -67.25 -3.8125 C-59.99 -3.8125 -52.73 -3.8125 -45.25 -3.8125 C-44.92 -0.1825 -44.59 3.4475 -44.25 7.1875 C-43.30125 5.95 -42.3525 4.7125 -41.375 3.4375 C-30.81361594 -8.4282781 -13.00386799 -7.25215715 0 0 Z " fill="#B01A2C" transform="translate(828.25,569.8125)"/>
<path d="M0 0 C0.8664917 -0.01015137 1.7329834 -0.02030273 2.62573242 -0.03076172 C12.5848594 0.10339975 21.76792936 2.74241346 29.3125 9.4375 C34.52333735 15.84157532 36.3125 19.98154163 36.3125 28.4375 C29.3825 28.4375 22.4525 28.4375 15.3125 28.4375 C14.3225 25.7975 13.3325 23.1575 12.3125 20.4375 C6.44223142 16.3538349 -0.75643398 16.5933317 -7.6875 17.4375 C-10.25436299 18.50394847 -11.6140105 19.54173817 -13.6875 21.4375 C-13.82706727 24.81096335 -13.82706727 24.81096335 -12.6875 28.4375 C-6.41710723 32.3675349 -0.14758332 33.53880511 7.0625 34.8125 C18.30080222 36.9914413 28.76507738 39.20030232 36.2265625 48.62890625 C40.4184463 55.61035302 40.40642544 63.43175259 38.6953125 71.26171875 C36.49320058 77.62445806 33.02026566 81.8725168 27.3125 85.4375 C13.02170148 92.00246066 -5.09752248 93.1681394 -19.953125 87.703125 C-28.30833493 83.8358564 -34.17085486 79.21044767 -38.5 71 C-39.6875 67.4375 -39.6875 67.4375 -39.6875 60.4375 C-31.7675 60.4375 -23.8475 60.4375 -15.6875 60.4375 C-14.6975 62.7475 -13.7075 65.0575 -12.6875 67.4375 C-7.57163901 72.29756794 -3.35554503 72.71310123 3.44140625 72.66796875 C7.47518122 72.34416913 12.34245597 71.40754403 15.3125 68.4375 C15.81320321 65.06392666 15.81320321 65.06392666 15.3125 61.4375 C10.80579674 56.02945609 3.08416717 55.06963462 -3.47265625 53.57421875 C-15.62046908 50.78802315 -27.5467478 47.53345926 -34.6875 36.4375 C-37.52720796 30.64257053 -37.41404486 24.75461641 -36.6875 18.4375 C-34.4629858 12.04331499 -29.49741195 7.65149385 -23.6875 4.4375 C-15.90522326 0.76854962 -8.48512575 0.07034146 0 0 Z " fill="#B01A2C" transform="translate(503.6875,563.5625)"/>
<path d="M0 0 C0.8664917 -0.01015137 1.7329834 -0.02030273 2.62573242 -0.03076172 C12.5848594 0.10339975 21.76792936 2.74241346 29.3125 9.4375 C34.52333735 15.84157532 36.3125 19.98154163 36.3125 28.4375 C29.3825 28.4375 22.4525 28.4375 15.3125 28.4375 C14.3225 25.7975 13.3325 23.1575 12.3125 20.4375 C6.44223142 16.3538349 -0.75643398 16.5933317 -7.6875 17.4375 C-10.25436299 18.50394847 -11.6140105 19.54173817 -13.6875 21.4375 C-13.82706727 24.81096335 -13.82706727 24.81096335 -12.6875 28.4375 C-6.41710723 32.3675349 -0.14758332 33.53880511 7.0625 34.8125 C18.30080222 36.9914413 28.76507738 39.20030232 36.2265625 48.62890625 C40.4184463 55.61035302 40.40642544 63.43175259 38.6953125 71.26171875 C36.49320058 77.62445806 33.02026566 81.8725168 27.3125 85.4375 C13.02170148 92.00246066 -5.09752248 93.1681394 -19.953125 87.703125 C-28.30833493 83.8358564 -34.17085486 79.21044767 -38.5 71 C-39.6875 67.4375 -39.6875 67.4375 -39.6875 60.4375 C-31.7675 60.4375 -23.8475 60.4375 -15.6875 60.4375 C-14.6975 62.7475 -13.7075 65.0575 -12.6875 67.4375 C-7.57163901 72.29756794 -3.35554503 72.71310123 3.44140625 72.66796875 C7.47518122 72.34416913 12.34245597 71.40754403 15.3125 68.4375 C15.81320321 65.06392666 15.81320321 65.06392666 15.3125 61.4375 C10.80579674 56.02945609 3.08416717 55.06963462 -3.47265625 53.57421875 C-15.62046908 50.78802315 -27.5467478 47.53345926 -34.6875 36.4375 C-37.52720796 30.64257053 -37.41404486 24.75461641 -36.6875 18.4375 C-34.4629858 12.04331499 -29.49741195 7.65149385 -23.6875 4.4375 C-15.90522326 0.76854962 -8.48512575 0.07034146 0 0 Z " fill="#B01A2C" transform="translate(420.6875,563.5625)"/>
<path d="M0 0 C7.92 0 15.84 0 24 0 C24 28.38 24 56.76 24 86 C16.08 86 8.16 86 0 86 C0 57.62 0 29.24 0 0 Z " fill="#B11B2D" transform="translate(726,566)"/>
<path d="M0 0 C5.6335813 2.16031547 9.21441131 5.64309868 12 11 C15.57579691 19.58191259 15.34957825 30.51308947 11.90625 39.10546875 C9.51264155 44.10934849 7.12962051 47.71276892 2.0546875 50.3046875 C-2.58725555 51.87553515 -7.3646292 51.8614655 -12.01953125 50.33984375 C-16.55319627 48.05819534 -19.72679903 44.51822177 -22 40 C-23.34010885 35.34354584 -23.21990164 30.55821343 -23.25 25.75 C-23.270625 24.94175781 -23.29125 24.13351562 -23.3125 23.30078125 C-23.35495049 16.66789247 -22.54837244 10.13296567 -18.24609375 4.84375 C-17.64925781 4.4003125 -17.05242188 3.956875 -16.4375 3.5 C-15.83808594 3.0359375 -15.23867188 2.571875 -14.62109375 2.09375 C-10.10914985 -0.95045311 -5.27498847 -0.62644937 0 0 Z " fill="#FCFAFA" transform="translate(894,584)"/>
<path d="M0 0 C5.6335813 2.16031547 9.21441131 5.64309868 12 11 C15.57579691 19.58191259 15.34957825 30.51308947 11.90625 39.10546875 C9.51264155 44.10934849 7.12962051 47.71276892 2.0546875 50.3046875 C-2.58725555 51.87553515 -7.3646292 51.8614655 -12.01953125 50.33984375 C-16.55319627 48.05819534 -19.72679903 44.51822177 -22 40 C-23.34010885 35.34354584 -23.21990164 30.55821343 -23.25 25.75 C-23.270625 24.94175781 -23.29125 24.13351562 -23.3125 23.30078125 C-23.35495049 16.66789247 -22.54837244 10.13296567 -18.24609375 4.84375 C-17.64925781 4.4003125 -17.05242188 3.956875 -16.4375 3.5 C-15.83808594 3.0359375 -15.23867188 2.571875 -14.62109375 2.09375 C-10.10914985 -0.95045311 -5.27498847 -0.62644937 0 0 Z " fill="#FCFAFA" transform="translate(680,584)"/>
<path d="M0 0 C0.32916895 6.74186768 0.53039461 12.11600898 -3 18 C-8.21028321 23.21028321 -12.81455482 25.04213141 -20.0625 25.375 C-23.68076793 25.30960962 -24.87296781 25.07777481 -28.0625 23.125 C-30.32592782 20.64253077 -30.9214694 19.57589109 -31.375 16.25 C-30.89578084 12.09676724 -29.14769892 9.61332213 -26 7 C-21.57104906 4.4132359 -17.25640685 3.24054775 -12.25 2.375 C-8.13499066 1.63256069 -4.07558577 0 0 0 Z " fill="#FBF7F7" transform="translate(600,612)"/>
<path d="M0 0 C7.92 0 15.84 0 24 0 C24 6.93 24 13.86 24 21 C16.08 21 8.16 21 0 21 C0 14.07 0 7.14 0 0 Z " fill="#B11B2D" transform="translate(726,535)"/>
<path d="M0 0 C3.42598591 2.33589949 5.48475175 4.38004555 7.75 7.875 C8.245 12.33 8.245 12.33 8.75 16.875 C-2.47 16.875 -13.69 16.875 -25.25 16.875 C-25.25 10.21529837 -24.13908696 7.91186907 -20.25 2.875 C-14.81556591 -2.23007445 -6.78635691 -2.34912354 0 0 Z " fill="#FCFAFA" transform="translate(344.25,584.125)"/>
<path d="M0 0 C10.8632943 2.99364269 23.92475693 6.65670641 30 17 C32.85336165 23.60035853 35.38831841 29.72180358 35 37 C31.70354528 35.61647725 30.17090075 34.19937978 28.1875 31.25 C24.29354338 25.85311275 19.96774392 22.03981962 14.125 18.875 C8.26857443 15.3794818 2.31712402 8.14245742 0.24609375 1.62890625 C0.16488281 1.09136719 0.08367187 0.55382812 0 0 Z " fill="#F5E6E8" transform="translate(458,472)"/>
<path d="M0 0 C0 0.66 0 1.32 0 2 C-0.66 2.33 -1.32 2.66 -2 3 C-2.68132451 4.66072849 -3.34742127 6.327767 -4 8 C-4.66 8.66 -5.32 9.32 -6 10 C-6.8737858 12.41084136 -7.67909383 14.80337701 -8.4375 17.25 C-11.01768596 25.53589688 -13.57430223 32.00533424 -21 37 C-25.01858589 39.00179558 -28.45479538 40 -33 40 C-31.79618552 37.50638429 -30.54571278 35.31856917 -29 33 C-28.34 33 -27.68 33 -27 33 C-27 32.34 -27 31.68 -27 31 C-26.34 31 -25.68 31 -25 31 C-24.95875 30.0925 -24.9175 29.185 -24.875 28.25 C-23.43462199 18.52251564 -17.5295863 10.04692645 -10 4 C-6.72251527 1.70184338 -4.11725408 0 0 0 Z " fill="#F9F1F2" transform="translate(614,464)"/>
<path d="M0 0 C0.66 0 1.32 0 2 0 C2.08040527 0.54938232 2.16081055 1.09876465 2.24365234 1.66479492 C2.61444691 4.17334447 2.99463528 6.68038446 3.375 9.1875 C3.50132812 10.05181641 3.62765625 10.91613281 3.7578125 11.80664062 C4.42767238 16.17747637 5.31891494 19.89786508 7 24 C7.265625 26.71875 7.265625 26.71875 7.25 29.5 C7.25515625 30.4178125 7.2603125 31.335625 7.265625 32.28125 C6.98262598 35.1778282 6.20350245 37.36375653 5 40 C3.68 40 2.36 40 1 40 C0.31640625 38.14453125 -0.3671875 36.2890625 -1.05078125 34.43359375 C-2.02824614 31.83110186 -2.02824614 31.83110186 -3.578125 28.75390625 C-5.33618463 24.6645663 -5.4808476 20.90569283 -5.4375 16.5 C-5.45748047 15.77941406 -5.47746094 15.05882812 -5.49804688 14.31640625 C-5.49297407 8.70587882 -4.10799142 4.10799142 0 0 Z " fill="#F6EAEC" transform="translate(453,395)"/>
<path d="M0 0 C2.69286598 1.2624619 4.57999009 2.46892815 6.9375 4.375 C11.97269703 8.09618728 18.03501548 9.39438763 24 11 C24 11.66 24 12.32 24 13 C24.87011719 13.2578125 25.74023438 13.515625 26.63671875 13.78125 C30.05103241 15.01849258 32.76743668 16.53383052 35.8125 18.5 C36.76769531 19.1084375 37.72289062 19.716875 38.70703125 20.34375 C41 22 41 22 42 24 C40.7625 23.71125 39.525 23.4225 38.25 23.125 C34.51479745 22.28516672 30.78420738 21.6398342 27 21.0625 C17.93693655 19.56921958 5.90582205 16.70884561 0 9 C-0.29296875 6.73828125 -0.29296875 6.73828125 -0.1875 4.3125 C-0.16042969 3.50425781 -0.13335938 2.69601562 -0.10546875 1.86328125 C-0.07066406 1.24839844 -0.03585937 0.63351562 0 0 Z " fill="#F8EDEE" transform="translate(529,344)"/>
<path d="M0 0 C1.45428437 0.0396623 2.90799128 0.11093049 4.359375 0.2109375 C5.10445313 0.23800781 5.84953125 0.26507813 6.6171875 0.29296875 C8.44916493 0.36342942 10.27964651 0.47104757 12.109375 0.5859375 C12.109375 1.5759375 12.109375 2.5659375 12.109375 3.5859375 C10.38411458 4.52994792 8.65885417 5.47395833 6.93359375 6.41796875 C5.03287054 7.63492001 3.68366349 8.9755966 2.109375 10.5859375 C0.70708839 11.70831031 -0.71094133 12.81117807 -2.140625 13.8984375 C-3.72449986 15.12690629 -5.30784574 16.35605744 -6.890625 17.5859375 C-7.55191406 18.09511719 -8.21320313 18.60429687 -8.89453125 19.12890625 C-13.09959323 22.51656957 -15.47256205 25.7498116 -17.890625 30.5859375 C-18.880625 30.5859375 -19.870625 30.5859375 -20.890625 30.5859375 C-20.76913464 23.66098703 -20.76913464 23.66098703 -18.44140625 20.8125 C-17.21339301 19.67771987 -15.97594784 18.55308249 -14.73046875 17.4375 C-12.20364598 14.89458281 -10.73339676 12.07433972 -9.12890625 8.89453125 C-8.51595703 7.75177734 -8.51595703 7.75177734 -7.890625 6.5859375 C-7.08431641 4.97525391 -7.08431641 4.97525391 -6.26171875 3.33203125 C-3.890625 0.5859375 -3.890625 0.5859375 0 0 Z " fill="#F4E3E5" transform="translate(467.890625,362.4140625)"/>
<path d="M0 0 C0 0.66 0 1.32 0 2 C-2.31 2.33 -4.62 2.66 -7 3 C-7 3.66 -7 4.32 -7 5 C-7.73992187 5.25136719 -8.47984375 5.50273437 -9.2421875 5.76171875 C-12.20569126 7.09235712 -13.86810607 8.49807741 -16.125 10.8125 C-16.78757812 11.47894531 -17.45015625 12.14539063 -18.1328125 12.83203125 C-20.0797361 14.95108965 -20.0797361 14.95108965 -21.4296875 17.51953125 C-23.27053006 20.42732982 -25.18126948 21.92034461 -28 23.875 C-29.299375 24.79925781 -29.299375 24.79925781 -30.625 25.7421875 C-31.800625 26.36480469 -31.800625 26.36480469 -33 27 C-33.99 26.67 -34.98 26.34 -36 26 C-26.47150848 8.53109888 -20.58004952 -1.57347466 0 0 Z " fill="#F5E6E8" transform="translate(513,357)"/>
<path d="M0 0 C5.16661456 2.10491704 8.27268854 5.64235194 10.875 10.5 C15.04018162 18.04632906 22.57183859 20.16447369 30.3046875 22.7890625 C31.63886719 23.38847656 31.63886719 23.38847656 33 24 C33.495 25.485 33.495 25.485 34 27 C20.3667426 27.3690205 20.3667426 27.3690205 14 25 C14 24.34 14 23.68 14 23 C13.34 23 12.68 23 12 23 C12 22.34 12 21.68 12 21 C11.40445312 20.74863281 10.80890625 20.49726562 10.1953125 20.23828125 C5.71297153 17.70998572 2.9681378 12.84826307 0.625 8.375 C-0.12762796 5.51501373 -0.13693486 2.9440994 0 0 Z " fill="#F4E0E3" transform="translate(473,498)"/>
<path d="M0 0 C3.63903848 0.70759082 5.67654829 1.94928219 8.0234375 4.9296875 C10.92760884 11.08653073 9.18425003 19.48662483 8 26 C7.34 26 6.68 26 6 26 C6.061875 27.1446875 6.061875 27.1446875 6.125 28.3125 C6 31 6 31 4 34 C3.34 34 2.68 34 2 34 C-1.10185128 30.03166804 -1.31364624 27.10888152 -1.07421875 22.16796875 C-1.01943359 20.87568359 -0.96464844 19.58339844 -0.90820312 18.25195312 C-0.834982 16.89711664 -0.76140989 15.54229908 -0.6875 14.1875 C-0.62418618 12.81321775 -0.56232202 11.43886789 -0.50195312 10.06445312 C-0.3488835 6.70869605 -0.18105027 3.35434475 0 0 Z " fill="#F9F1F2" transform="translate(595,426)"/>
<path d="M0 0 C0.99 0 1.98 0 3 0 C3.5751194 4.69680844 3.81703119 8.68800008 0.8125 12.5625 C-3.88734435 17.38691853 -10.09164368 20.85812543 -16 24 C-16.66 24 -17.32 24 -18 24 C-18 22.68 -18 21.36 -18 20 C-17.34 20 -16.68 20 -16 20 C-15.9175 19.113125 -15.835 18.22625 -15.75 17.3125 C-14.42768374 11.47226984 -10.41138909 8.30955374 -5.8125 4.75 C-2.80494042 2.49183409 -2.80494042 2.49183409 0 0 Z " fill="#F6E9EA" transform="translate(576,486)"/>
<path d="M0 0 C0.33 0 0.66 0 1 0 C1.24234375 1.08796875 1.4846875 2.1759375 1.734375 3.296875 C3.52618349 11.19597442 5.4392815 18.87498865 8.265625 26.484375 C9.03349682 29.11474444 9.13721552 31.27529184 9 34 C5.66699321 33.75311061 4.80343072 32.79384198 2.4375 30.3125 C-3.73607034 22.23350672 -3.59007654 15.24911151 -2.625 5.4375 C-2 2 -2 2 0 0 Z " fill="#F4E3E5" transform="translate(442,446)"/>
<path d="M0 0 C10.3351472 2.02839338 16.79337588 6.46930927 24 14 C25.63469033 16.69723904 26 17.78120986 26 21 C23.36 20.67 20.72 20.34 18 20 C18 19.34 18 18.68 18 18 C17.13375 17.9071875 17.13375 17.9071875 16.25 17.8125 C13.07551517 16.66615826 11.87151425 14.74043158 10 12 C10 11.34 10 10.68 10 10 C9.01 9.67 8.02 9.34 7 9 C5.31288577 7.3540349 3.6454378 5.68762851 2 4 C1.34 3.67 0.68 3.34 0 3 C0 2.01 0 1.02 0 0 Z " fill="#F5E5E7" transform="translate(564,374)"/>
<path d="M0 0 C0.66 0 1.32 0 2 0 C2 0.99 2 1.98 2 3 C2.66 3 3.32 3 4 3 C7.83184141 12.99015796 8.48810735 21.43789938 8 32 C7.01 31.67 6.02 31.34 5 31 C5 29.35 5 27.7 5 26 C4.01 25.67 3.02 25.34 2 25 C1.0859375 22.53125 1.0859375 22.53125 0.375 19.5 C-0.23137716 15.95087626 -0.23137716 15.95087626 -2 13 C-2.16796875 11.07421875 -2.16796875 11.07421875 -2.1875 8.6875 C-2.20167969 7.90761719 -2.21585938 7.12773437 -2.23046875 6.32421875 C-1.97984413 3.7967332 -1.26373772 2.18281969 0 0 Z " fill="#F8EEEF" transform="translate(601,386)"/>
<path d="M0 0 C0 0.66 0 1.32 0 2 C0.99 2 1.98 2 3 2 C3 2.99 3 3.98 3 5 C-6.83743016 5.33706931 -15.50386702 5.02149686 -25 2 C-25 0.68 -25 -0.64 -25 -2 C-15.63195212 -4.08370183 -8.66062992 -4.9798622 0 0 Z " fill="#E7BCC1" transform="translate(558,524)"/>
<path d="M0 0 C-1.5577308 3.82352106 -3.91595258 6.29205593 -7 9 C-7.99 9 -8.98 9 -10 9 C-10 9.66 -10 10.32 -10 11 C-14.86051596 13.59227518 -19.65271133 13.18689553 -25 13 C-24.75923917 9.74972875 -23.78086113 8.77581959 -21.453125 6.39453125 C-17.84847141 3.58337518 -14.16288087 2.62099403 -9.75 1.6875 C-9.03070312 1.51927734 -8.31140625 1.35105469 -7.5703125 1.17773438 C-2.43635204 0 -2.43635204 0 0 0 Z " fill="#F5E6E8" transform="translate(535,504)"/>
<path d="M0 0 C1.9375 1.1875 1.9375 1.1875 2.9375 4.1875 C-3.0025 4.1875 -8.9425 4.1875 -15.0625 4.1875 C-15.0625 3.5275 -15.0625 2.8675 -15.0625 2.1875 C-15.7225 1.8575 -16.3825 1.5275 -17.0625 1.1875 C-11.76180551 -1.89743074 -5.80694863 -1.54061902 0 0 Z " fill="#FBF6F7" transform="translate(556.0625,522.8125)"/>
<path d="M0 0 C0.66 0.33 1.32 0.66 2 1 C2 6.94 2 12.88 2 19 C1.01 19 0.02 19 -1 19 C-1.02690104 16.20826945 -1.04679053 13.41679652 -1.0625 10.625 C-1.07087891 9.8309375 -1.07925781 9.036875 -1.08789062 8.21875 C-1.11328125 2.2265625 -1.11328125 2.2265625 0 0 Z M-3 19 C-2.01 19.495 -2.01 19.495 -1 20 C-1.99 20.495 -1.99 20.495 -3 21 C-3 20.34 -3 19.68 -3 19 Z " fill="#B11C2D" transform="translate(592,427)"/>
<path d="M0 0 C0.66 0 1.32 0 2 0 C2 2.31 2 4.62 2 7 C0.35 6.67 -1.3 6.34 -3 6 C-3.09579384 14.07861415 -3.12513633 21.98340366 -2 30 C-2.309375 29.360625 -2.61875 28.72125 -2.9375 28.0625 C-3.8345163 26.06389179 -3.8345163 26.06389179 -5 25 C-5.18180209 22.27594901 -5.27830455 19.60151705 -5.3125 16.875 C-5.34150391 16.12734375 -5.37050781 15.3796875 -5.40039062 14.609375 C-5.46483857 8.91812612 -4.19805971 5.70842443 -1 1 C-0.67 0.67 -0.34 0.34 0 0 Z " fill="#E2AFB5" transform="translate(453,395)"/>
<path d="M0 0 C7.92 0 15.84 0 24 0 C24 0.99 24 1.98 24 3 C7.1070615 3.3690205 7.1070615 3.3690205 0 1 C0 0.67 0 0.34 0 0 Z " fill="#DC9BA3" transform="translate(537,526)"/>
<path d="M0 0 C2.37625177 -0.10883596 4.74743976 -0.18766696 7.125 -0.25 C7.79015625 -0.28351563 8.4553125 -0.31703125 9.140625 -0.3515625 C14.48679071 -0.45638928 16.95810162 0.80173773 21 4 C17.09771596 5.30076135 15.9094461 4.3031487 12 3 C8.01396242 2.24148199 4.01119076 1.61011639 0 1 C0 0.67 0 0.34 0 0 Z " fill="#E8BEC3" transform="translate(550,363)"/>
<path d="M0 0 C0.66 0 1.32 0 2 0 C1.98839844 1.07121094 1.97679687 2.14242188 1.96484375 3.24609375 C1.95546701 4.64322743 1.94636669 6.04036299 1.9375 7.4375 C1.92912109 8.14455078 1.92074219 8.85160156 1.91210938 9.58007812 C1.90346412 11.38693559 1.94779989 13.19387603 2 15 C2.33 15.33 2.66 15.66 3 16 C3.04080783 17.99958364 3.04254356 20.00045254 3 22 C1.01489942 20.36292167 0.08152696 19.49903853 -0.34057617 16.9152832 C-0.32486572 16.13499756 -0.30915527 15.35471191 -0.29296875 14.55078125 C-0.28330078 13.70322266 -0.27363281 12.85566406 -0.26367188 11.98242188 C-0.23853516 11.10134766 -0.21339844 10.22027344 -0.1875 9.3125 C-0.17396484 8.41982422 -0.16042969 7.52714844 -0.14648438 6.60742188 C-0.11114079 4.40433834 -0.06180493 2.20247418 0 0 Z " fill="#CD6E79" transform="translate(433,451)"/>
<path d="M0 0 C0.66 0 1.32 0 2 0 C2 0.99 2 1.98 2 3 C2.66 3 3.32 3 4 3 C4.33 4.65 4.66 6.3 5 8 C3.68 7.01 2.36 6.02 1 5 C-0.96822886 6.96822886 -0.66248381 10.34808709 -1 13 C-1.33 13 -1.66 13 -2 13 C-2.05447047 11.58376784 -2.09300508 10.16691809 -2.125 8.75 C-2.14820313 7.96109375 -2.17140625 7.1721875 -2.1953125 6.359375 C-1.9828378 3.79268059 -1.28654105 2.2083933 0 0 Z " fill="#E6B8BE" transform="translate(601,386)"/>
<path d="M0 0 C0.66 0 1.32 0 2 0 C2 0.66 2 1.32 2 2 C2.66 2.33 3.32 2.66 4 3 C3.34 3 2.68 3 2 3 C2 9.6 2 16.2 2 23 C1.67 23 1.34 23 1 23 C0.67 15.41 0.34 7.82 0 0 Z " fill="#D4838C" transform="translate(593,423)"/>
<path d="M0 0 C0.66 0 1.32 0 2 0 C2.33 1.32 2.66 2.64 3 4 C2.34 4 1.68 4 1 4 C1.33 9.28 1.66 14.56 2 20 C-0.03120707 16.95318939 -0.24659875 16.39881676 -0.1953125 12.98828125 C-0.18886719 12.23095703 -0.18242187 11.47363281 -0.17578125 10.69335938 C-0.15902344 9.90767578 -0.14226562 9.12199219 -0.125 8.3125 C-0.11597656 7.51521484 -0.10695313 6.71792969 -0.09765625 5.89648438 C-0.07411585 3.930861 -0.03824547 1.96539225 0 0 Z " fill="#E8C0C4" transform="translate(448,434)"/>
<path d="M0 0 C0.66 0.33 1.32 0.66 2 1 C0.90344712 2.31886772 -0.20253423 3.62990057 -1.3125 4.9375 C-1.92738281 5.66839844 -2.54226563 6.39929688 -3.17578125 7.15234375 C-5 9 -5 9 -8 10 C-6.34908222 5.70761377 -3.26245434 3.1206085 0 0 Z " fill="#EBC8CD" transform="translate(604,468)"/>
<path d="M0 0 C0.99 0.33 1.98 0.66 3 1 C1.92319498 2.13125022 0.83824365 3.25474919 -0.25 4.375 C-0.85328125 5.00148438 -1.4565625 5.62796875 -2.078125 6.2734375 C-3.9700588 7.97310161 -5.68201309 8.98459866 -8 10 C-6.34908222 5.70761377 -3.26245434 3.1206085 0 0 Z " fill="#C04856" transform="translate(500,364)"/>
<path d="M0 0 C0.66 0 1.32 0 2 0 C2.33 4.62 2.66 9.24 3 14 C2.01 14.66 1.02 15.32 0 16 C0 10.72 0 5.44 0 0 Z " fill="#F0D5D8" transform="translate(584,472)"/>
<path d="M0 0 C0.33 0.99 0.66 1.98 1 3 C1.66 2.67 2.32 2.34 3 2 C2.42415568 4.38564077 1.77772405 6.66682784 1 9 C0.01 9 -0.98 9 -2 9 C-1.125 1.125 -1.125 1.125 0 0 Z " fill="#ECCACE" transform="translate(449,384)"/>
<path d="M0 0 C0.99 0.33 1.98 0.66 3 1 C2.67 3.97 2.34 6.94 2 10 C0.02 10 -1.96 10 -4 10 C-3.67 9.34 -3.34 8.68 -3 8 C-1.02 8.495 -1.02 8.495 1 9 C0.67 6.03 0.34 3.06 0 0 Z " fill="#E1ABB1" transform="translate(458,485)"/>
<path d="M0 0 C-1.44253657 3.36591866 -3.33264727 5.51047079 -6 8 C-6.99 7.67 -7.98 7.34 -9 7 C-8.34 7 -7.68 7 -7 7 C-6.731875 6.401875 -6.46375 5.80375 -6.1875 5.1875 C-3.37142857 0 -3.37142857 0 0 0 Z " fill="#BF4554" transform="translate(511,507)"/>
<path d="M0 0 C0.66 0 1.32 0 2 0 C2 2.31 2 4.62 2 7 C0.68 6.67 -0.64 6.34 -2 6 C-1.125 1.125 -1.125 1.125 0 0 Z " fill="#EAC5C9" transform="translate(453,395)"/>
<path d="M0 0 C0.66 0 1.32 0 2 0 C0.55746343 3.36591866 -1.33264727 5.51047079 -4 8 C-4.66 7.67 -5.32 7.34 -6 7 C-5.04882866 5.8274869 -4.08882991 4.66212985 -3.125 3.5 C-2.59132813 2.8503125 -2.05765625 2.200625 -1.5078125 1.53125 C-0.76144531 0.77328125 -0.76144531 0.77328125 0 0 Z " fill="#C04957" transform="translate(458,381)"/>
<path d="M0 0 C2.875 -0.125 2.875 -0.125 6 0 C6.66 0.66 7.32 1.32 8 2 C7 3 7 3 3.9375 3.0625 C2.968125 3.041875 1.99875 3.02125 1 3 C0.67 2.01 0.34 1.02 0 0 Z " fill="#EFD3D6" transform="translate(544,368)"/>
<path d="M0 0 C0.66 0.33 1.32 0.66 2 1 C0.02 3.31 -1.96 5.62 -4 8 C-4.33 7.01 -4.66 6.02 -5 5 C-3.35 3.35 -1.7 1.7 0 0 Z " fill="#ECCACE" transform="translate(495,358)"/>
<path d="M0 0 C1.33332095 2.6666419 0.67102033 4.16680303 0 7 C-1.32 7 -2.64 7 -4 7 C-2.79618552 4.50638429 -1.54571278 2.31856917 0 0 Z " fill="#E6B8BE" transform="translate(585,497)"/>
<path d="M0 0 C0 0.66 0 1.32 0 2 C-0.99 2.495 -0.99 2.495 -2 3 C-2.72159424 4.64363134 -3.39351421 6.31050386 -4 8 C-4.33 7.34 -4.66 6.68 -5 6 C-4.67 5.01 -4.34 4.02 -4 3 C-4.66 2.67 -5.32 2.34 -6 2 C-3 0 -3 0 0 0 Z " fill="#E3AFB5" transform="translate(614,464)"/>
</svg>
